# xmcd CD database file
#
# Track frame offsets:
#	187
#	20500
#	46780
#	63272
#	86167
#	111937
#	124512
#	142765
#	164510
#	185110
#
# Disc length: 2802 seconds
#
# Revision: 0
# Processed by: cddbd v1.5PL3 Copyright (c) Steve Scherf et al.
# Submitted via: CDex 1.51
#
DISCID=830af00a
DTITLE=GARGOYLE - 璞
DYEAR=1992
DGENRE=Heavy Metal
TTITLE0=真王
TTITLE1=凱歌
TTITLE2=OPEN SESAME
TTITLE3=人の為
TTITLE4=Cogito,ergo sum
TTITLE5=PROPAGANDA
TTITLE6=HALLELUYAH
TTITLE7=不倶戴天
TTITLE8=頭ガコワレタ
TTITLE9=DOGMA
EXTD=YEAR: 1992
EXTT0=
EXTT1=
EXTT2=
EXTT3=
EXTT4=
EXTT5=
EXTT6=
EXTT7=
EXTT8=
EXTT9=
PLAYORDER=
